<?xml version="1.0" encoding="UTF-8"?>
<svg width="1200" height="800" viewBox="0 0 1200 800" xmlns="http://www.w3.org/2000/svg">
  <!-- Toucan silhouettes -->
  <g opacity="0.06" fill="#fd5d13">
    <!-- Toucan 1 -->
    <path d="M150,200 C120,180 100,150 110,120 C120,100 140,90 160,95 L180,100 C200,105 220,110 240,120 C260,130 270,140 275,155 C280,170 275,185 265,195 C255,205 240,210 220,208 C200,206 180,200 160,195 L150,200 Z M240,120 C250,115 265,112 280,115 C295,118 310,125 320,135 C330,145 335,160 330,175 C325,190 315,200 300,205 C285,210 270,210 255,205 L240,120 Z"/>
    
    <!-- Toucan 2 (smaller, different position) -->
    <path d="M900,500 C880,485 870,465 875,445 C880,430 890,420 905,422 L920,425 C935,428 950,432 960,440 C970,448 975,455 978,465 C981,475 978,485 972,492 C966,499 955,502 942,501 C929,500 916,497 905,493 L900,500 Z M960,440 C967,437 977,435 987,437 C997,439 1007,443 1012,450 C1017,457 1019,467 1016,477 C1013,487 1007,494 998,497 C989,500 979,500 970,497 L960,440 Z"/>
  </g>
  
  <!-- Palm fronds -->
  <g opacity="0.08" stroke="#d9fd12" stroke-width="2" fill="none">
    <!-- Large palm frond -->
    <path d="M50,600 Q100,550 150,500 Q200,450 250,400 Q300,350 350,300"/>
    <path d="M50,600 Q80,570 110,540 Q140,510 170,480"/>
    <path d="M50,600 Q70,580 90,560 Q110,540 130,520"/>
    <path d="M50,600 Q90,590 130,580 Q170,570 210,560"/>
    <path d="M50,600 Q110,610 170,620 Q230,630 290,640"/>
    
    <!-- Medium palm frond -->
    <path d="M1000,150 Q950,200 900,250 Q850,300 800,350"/>
    <path d="M1000,150 Q980,170 960,190 Q940,210 920,230"/>
    <path d="M1000,150 Q990,160 980,170 Q970,180 960,190"/>
    <path d="M1000,150 Q980,140 960,130 Q940,120 920,110"/>
  </g>
  
  <!-- Abstract brushstroke forms -->
  <g opacity="0.05" fill="#ff8f9d">
    <!-- Flowing brushstroke 1 -->
    <path d="M400,100 C450,120 500,140 540,180 C580,220 600,270 580,320 C560,370 520,400 470,410 C420,420 370,410 330,380 C290,350 270,300 280,250 C290,200 320,160 360,130 C380,115 390,107 400,100 Z"/>
    
    <!-- Flowing brushstroke 2 -->
    <path d="M800,600 C750,580 700,560 660,520 C620,480 600,430 620,380 C640,330 680,300 730,290 C780,280 830,290 870,320 C910,350 930,400 920,450 C910,500 880,540 840,570 C820,585 810,593 800,600 Z"/>
    
    <!-- Small accent forms -->
    <circle cx="300" cy="400" r="15"/>
    <circle cx="700" cy="300" r="12"/>
    <circle cx="500" cy="600" r="18"/>
  </g>
  
  <!-- Geometric patterns inspired by textiles -->
  <g opacity="0.04" stroke="#fd5d13" stroke-width="1" fill="none">
    <!-- Diamond patterns -->
    <path d="M200,300 L220,280 L240,300 L220,320 Z"/>
    <path d="M260,340 L280,320 L300,340 L280,360 Z"/>
    <path d="M320,380 L340,360 L360,380 L340,400 Z"/>
    
    <!-- Zigzag patterns -->
    <path d="M600,200 L610,190 L620,200 L630,190 L640,200 L650,190 L660,200"/>
    <path d="M600,220 L610,210 L620,220 L630,210 L640,220 L650,210 L660,220"/>
    
    <!-- Step patterns -->
    <path d="M800,400 L810,400 L810,410 L820,410 L820,420 L830,420 L830,430"/>
    <path d="M800,450 L810,450 L810,460 L820,460 L820,470 L830,470 L830,480"/>
  </g>
</svg>
