<?xml version="1.0" encoding="UTF-8"?>
<svg width="800" height="600" viewBox="0 0 800 600" xmlns="http://www.w3.org/2000/svg">
  <!-- Palm Leaf 1 -->
  <path d="M700,550 C650,450 620,350 640,250 C650,220 670,190 700,170 C650,200 620,240 610,290 C600,230 620,160 660,100 C600,150 570,220 570,290 C560,200 590,140 650,70 C580,130 550,200 540,280 C530,210 550,120 600,50 C530,110 500,200 520,290 C500,220 510,140 550,70 C490,120 470,190 490,260 C460,190 470,120 510,60 C450,110 440,180 460,240 C430,200 420,140 450,80 C410,130 400,190 420,240"
        fill="none" stroke="rgba(217, 253, 18, 0.3)" stroke-width="2" />
  
  <!-- Palm Leaf 2 -->
  <path d="M200,570 C250,470 280,370 260,270 C250,240 230,210 200,190 C250,220 280,260 290,310 C300,250 280,180 240,120 C300,170 330,240 330,310 C340,220 310,160 250,90 C320,150 350,220 360,300 C370,230 350,140 300,70 C370,130 400,220 380,310 C400,240 390,160 350,90 C410,140 430,210 410,280 C440,210 430,140 390,80 C450,130 460,200 440,260 C470,220 480,160 450,100 C490,150 500,210 480,260"
        fill="none" stroke="rgba(253, 93, 19, 0.25)" stroke-width="2" />
  
  <!-- Palm Leaf 3 (smaller, top left) -->
  <path d="M150,150 C170,100 180,50 160,20 C155,10 145,5 130,5 C150,15 160,30 165,50 C170,30 160,10 140,0 C160,10 175,30 175,50 C180,30 165,15 140,5 C160,15 175,30 180,50 C185,30 175,15 155,0 C175,15 190,35 180,55 C190,40 185,25 170,10 C185,20 195,40 185,60 C195,45 200,25 185,10 C200,25 205,45 195,65 C205,50 210,30 195,15 C210,30 215,50 205,70"
        fill="none" stroke="rgba(255, 143, 157, 0.3)" stroke-width="1.5" />
</svg>
